<svg width="80" height="80" viewBox="0 0 80 80" fill="none" xmlns="http://www.w3.org/2000/svg">
<circle cx="40" cy="40" r="39.5" fill="#8E8E8E" stroke="#00D0DD"/>
<path fill-rule="evenodd" clip-rule="evenodd" d="M30.036 26.5382C30.036 20.5267 34.5484 15.75 40.0001 15.75C45.4517 15.75 49.9641 20.5267 49.9641 26.5382C49.9641 32.5497 45.4517 37.3264 40.0001 37.3264C34.5484 37.3264 30.036 32.5497 30.036 26.5382ZM40.0001 14.25C33.6173 14.25 28.536 19.8049 28.536 26.5382C28.536 33.2715 33.6173 38.8264 40.0001 38.8264C46.3828 38.8264 51.4641 33.2715 51.4641 26.5382C51.4641 19.8049 46.3828 14.25 40.0001 14.25ZM15.7505 64.9988C15.7505 61.9227 16.3969 59.5103 17.5403 57.6112C18.6827 55.7139 20.3518 54.2778 22.4814 53.2022C26.7759 51.0331 32.87 50.3646 39.9999 50.3646C47.1299 50.3646 53.224 51.0331 57.5185 53.2022C59.6481 54.2778 61.3172 55.7139 62.4595 57.6112C63.603 59.5103 64.2494 61.9227 64.2494 64.9988C64.2494 65.413 64.5851 65.7488 64.9994 65.7488C65.4136 65.7488 65.7494 65.413 65.7494 64.9988C65.7494 61.7097 65.0565 59.0164 63.7446 56.8375C62.4316 54.6568 60.5294 53.0425 58.1948 51.8633C53.561 49.5229 47.1554 48.8646 39.9999 48.8646C32.8445 48.8646 26.4389 49.5229 21.8051 51.8633C19.4705 53.0425 17.5683 54.6568 16.2553 56.8375C14.9434 59.0164 14.2505 61.7097 14.2505 64.9988C14.2505 65.413 14.5863 65.7488 15.0005 65.7488C15.4148 65.7488 15.7505 65.413 15.7505 64.9988Z" fill="black"/>
</svg>
