<svg width="40" height="40" viewBox="0 0 40 40" fill="none" xmlns="http://www.w3.org/2000/svg">
<circle cx="20" cy="20" r="19.5" fill="#8E8E8E" stroke="#00D0DD"/>
<path fill-rule="evenodd" clip-rule="evenodd" d="M15.393 13.2691C15.393 10.4438 17.507 8.25 20 8.25C22.493 8.25 24.607 10.4438 24.607 13.2691C24.607 16.0944 22.493 18.2882 20 18.2882C17.507 18.2882 15.393 16.0944 15.393 13.2691ZM20 6.75C16.5758 6.75 13.893 9.72201 13.893 13.2691C13.893 16.8162 16.5758 19.7882 20 19.7882C23.4242 19.7882 26.107 16.8162 26.107 13.2691C26.107 9.72201 23.4242 6.75 20 6.75ZM8.25027 32.4994C8.25027 31.0146 8.56185 29.8786 9.09144 28.999C9.61995 28.1212 10.3963 27.4477 11.4097 26.9358C13.4722 25.8941 16.4414 25.5573 20 25.5573C23.5586 25.5573 26.5278 25.8941 28.5902 26.9358C29.6037 27.4477 30.38 28.1212 30.9085 28.999C31.4381 29.8786 31.7497 31.0146 31.7497 32.4994C31.7497 32.9136 32.0855 33.2494 32.4997 33.2494C32.9139 33.2494 33.2497 32.9136 33.2497 32.4994C33.2497 30.8016 32.8916 29.3847 32.1936 28.2253C31.4944 27.0641 30.4851 26.2124 29.2665 25.5969C26.8647 24.3839 23.584 24.0573 20 24.0573C16.4159 24.0573 13.1352 24.3839 10.7335 25.5969C9.51488 26.2124 8.50552 27.0641 7.80638 28.2253C7.10832 29.3847 6.75027 30.8016 6.75027 32.4994C6.75027 32.9136 7.08606 33.2494 7.50027 33.2494C7.91449 33.2494 8.25027 32.9136 8.25027 32.4994Z" fill="black"/>
</svg>
