<svg width="22" height="22" viewBox="0 0 22 22" fill="none" xmlns="http://www.w3.org/2000/svg">
<g clip-path="url(#clip0_251_97)">
<path d="M6 11L9.75 14.75L16 7.25M1 17.0002V5.00025C1 3.60011 1 2.89953 1.27249 2.36475C1.51216 1.89434 1.89434 1.51216 2.36475 1.27249C2.89953 1 3.60011 1 5.00025 1H17.0002C18.4004 1 19.0995 1 19.6343 1.27249C20.1046 1.51216 20.4881 1.89434 20.7277 2.36475C21 2.899 21 3.59874 21 4.99614V17.0045C21 18.4019 21 19.1006 20.7277 19.6349C20.4881 20.1052 20.1046 20.4881 19.6343 20.7277C19.1 21 18.4013 21 17.0039 21H4.99614C3.59874 21 2.899 21 2.36475 20.7277C1.89434 20.4881 1.51216 20.1052 1.27249 19.6349C1 19.1001 1 18.4004 1 17.0002Z" stroke="#65FF4B" stroke-width="2" stroke-linecap="round" stroke-linejoin="round"/>
</g>
<defs>
<clipPath id="clip0_251_97">
<rect width="22" height="22" fill="white"/>
</clipPath>
</defs>
</svg>
