<svg width="36" height="32" viewBox="0 0 36 32" fill="none" xmlns="http://www.w3.org/2000/svg">
<g clip-path="url(#clip0_195_79)">
<path fill-rule="evenodd" clip-rule="evenodd" d="M1.42844 2.87206C1.42844 2.06265 2.07391 1.42267 2.8503 1.42267H33.2563C34.0327 1.42267 34.6782 2.06265 34.6782 2.87206V6.80994L18.0533 15.2278L1.42844 6.80994V2.87206ZM-0.071555 7.25472C-0.0717704 7.26509 -0.0717697 7.27544 -0.071555 7.28578V29.2648C-0.071555 30.8848 1.22772 32.2142 2.8503 32.2142H33.2563C34.8789 32.2142 36.1782 30.8848 36.1782 29.2648V7.28571C36.1784 7.27542 36.1784 7.26511 36.1782 7.25479V2.87206C36.1782 1.2521 34.8789 -0.0773315 33.2563 -0.0773315H2.8503C1.22772 -0.0773315 -0.071555 1.2521 -0.071555 2.87206V7.25472ZM34.6782 8.49126V29.2648C34.6782 30.0742 34.0327 30.7142 33.2563 30.7142H2.8503C2.07391 30.7142 1.42844 30.0742 1.42844 29.2648V8.49126L17.7145 16.7375C17.9275 16.8454 18.1791 16.8454 18.3921 16.7375L34.6782 8.49126Z" fill="white"/>
</g>
<defs>
<clipPath id="clip0_195_79">
<rect width="36" height="32" fill="white"/>
</clipPath>
</defs>
</svg>
