<svg width="14" height="22" viewBox="0 0 14 22" fill="none" xmlns="http://www.w3.org/2000/svg">
<g clip-path="url(#clip0_254_103)">
<path d="M0 21.1606C0 21.6166 0.330708 21.9897 0.734907 21.9897C1.14829 21.9897 1.479 21.6166 1.479 21.1606V2.21762C1.479 1.88601 1.67191 1.6684 1.94751 1.6684H12.0525C12.3281 1.6684 12.521 1.88601 12.521 2.21762V21.1606C12.521 21.6166 12.8517 21.9897 13.2651 21.9897C13.6693 21.9897 14 21.6166 14 21.1606V2.11399C14 0.849742 13.2375 0 12.0801 0H1.91995C0.771652 0 0 0.849742 0 2.11399V21.1606Z" fill="white"/>
<path d="M2.55377 21.3989C2.55377 21.5958 2.70075 21.6995 2.8753 21.6165L5.75981 20.1761C5.98946 20.0621 6.08133 19.9793 6.08133 19.7098V4.77715C6.08133 4.51809 5.98946 4.42483 5.769 4.3212L2.8753 2.87042C2.70075 2.78751 2.55377 2.89114 2.55377 3.0984V21.3989Z" fill="white"/>
</g>
<defs>
<clipPath id="clip0_254_103">
<rect width="14" height="22" fill="white"/>
</clipPath>
</defs>
</svg>
