<svg width="16" height="14" viewBox="0 0 16 14" fill="none" xmlns="http://www.w3.org/2000/svg">
<g clip-path="url(#clip0_111_2464)">
<path fill-rule="evenodd" clip-rule="evenodd" d="M2.68395 1.5C2.03053 1.5 1.5 2.03359 1.5 2.67317V11.3274C1.5 11.967 2.03053 12.5006 2.68395 12.5006H13.3207C13.9741 12.5006 14.5046 11.967 14.5046 11.3274V6.03871C14.5046 5.39913 13.9741 4.86554 13.3207 4.86554H8.00231C7.78409 4.86554 7.57669 4.7705 7.43422 4.60521L4.75769 1.5H2.68395ZM0 2.67317C0 1.19726 1.21002 0 2.68395 0H5.10139C5.31961 0 5.527 0.0950429 5.66948 0.260335L8.34601 3.36554H13.3207C14.7946 3.36554 16.0046 4.56281 16.0046 6.03871V11.3274C16.0046 12.8033 14.7946 14.0006 13.3207 14.0006H2.68395C1.21002 14.0006 0 12.8033 0 11.3274V2.67317Z" fill="white"/>
</g>
<defs>
<clipPath id="clip0_111_2464">
<rect width="16" height="14" fill="white"/>
</clipPath>
</defs>
</svg>
