<svg width="26" height="20" viewBox="0 0 26 20" fill="none" xmlns="http://www.w3.org/2000/svg">
<g clip-path="url(#clip0_111_2073)">
<path d="M0 20V16.5C0 15.7917 0.172348 15.1406 0.517045 14.5469C0.861742 13.9531 1.3197 13.5 1.89091 13.1875C3.11212 12.5417 4.35303 12.0573 5.61364 11.7344C6.87424 11.4115 8.15455 11.25 9.45455 11.25C10.7545 11.25 12.0348 11.4115 13.2955 11.7344C14.5561 12.0573 15.797 12.5417 17.0182 13.1875C17.5894 13.5 18.0473 13.9531 18.392 14.5469C18.7367 15.1406 18.9091 15.7917 18.9091 16.5V20H0ZM21.2727 20V16.25C21.2727 15.3333 21.0314 14.4531 20.5489 13.6094C20.0663 12.7656 19.3818 12.0417 18.4955 11.4375C19.5 11.5625 20.4455 11.776 21.3318 12.0781C22.2182 12.3802 23.0455 12.75 23.8136 13.1875C24.5227 13.6042 25.0644 14.0677 25.4386 14.5781C25.8129 15.0885 26 15.6458 26 16.25V20H21.2727ZM9.45455 10C8.15455 10 7.04167 9.51042 6.11591 8.53125C5.19015 7.55208 4.72727 6.375 4.72727 5C4.72727 3.625 5.19015 2.44792 6.11591 1.46875C7.04167 0.489583 8.15455 0 9.45455 0C10.7545 0 11.8674 0.489583 12.7932 1.46875C13.7189 2.44792 14.1818 3.625 14.1818 5C14.1818 6.375 13.7189 7.55208 12.7932 8.53125C11.8674 9.51042 10.7545 10 9.45455 10ZM21.2727 5C21.2727 6.375 20.8098 7.55208 19.8841 8.53125C18.9583 9.51042 17.8455 10 16.5455 10C16.3288 10 16.053 9.97396 15.7182 9.92188C15.3833 9.86979 15.1076 9.8125 14.8909 9.75C15.4227 9.08333 15.8314 8.34375 16.117 7.53125C16.4027 6.71875 16.5455 5.875 16.5455 5C16.5455 4.125 16.4027 3.28125 16.117 2.46875C15.8314 1.65625 15.4227 0.916667 14.8909 0.25C15.1667 0.145833 15.4424 0.078125 15.7182 0.046875C15.9939 0.015625 16.2697 0 16.5455 0C17.8455 0 18.9583 0.489583 19.8841 1.46875C20.8098 2.44792 21.2727 3.625 21.2727 5ZM2.36364 17.5H16.5455V16.5C16.5455 16.2708 16.4913 16.0625 16.383 15.875C16.2746 15.6875 16.1318 15.5417 15.9545 15.4375C14.8909 14.875 13.8174 14.4531 12.7341 14.1719C11.6508 13.8906 10.5576 13.75 9.45455 13.75C8.35151 13.75 7.25833 13.8906 6.175 14.1719C5.09167 14.4531 4.01818 14.875 2.95455 15.4375C2.77727 15.5417 2.63447 15.6875 2.52614 15.875C2.4178 16.0625 2.36364 16.2708 2.36364 16.5V17.5ZM9.45455 7.5C10.1045 7.5 10.661 7.25521 11.1239 6.76562C11.5867 6.27604 11.8182 5.6875 11.8182 5C11.8182 4.3125 11.5867 3.72396 11.1239 3.23438C10.661 2.74479 10.1045 2.5 9.45455 2.5C8.80455 2.5 8.24811 2.74479 7.78523 3.23438C7.32235 3.72396 7.09091 4.3125 7.09091 5C7.09091 5.6875 7.32235 6.27604 7.78523 6.76562C8.24811 7.25521 8.80455 7.5 9.45455 7.5Z" fill="white"/>
</g>
<defs>
<clipPath id="clip0_111_2073">
<rect width="26" height="20" fill="white"/>
</clipPath>
</defs>
</svg>
