<svg width="24" height="24" viewBox="0 0 24 24" fill="none" xmlns="http://www.w3.org/2000/svg">
<g clip-path="url(#clip0_87_275)">
<path fill-rule="evenodd" clip-rule="evenodd" d="M12.0042 1.50452C6.20541 1.50452 1.50452 6.20541 1.50452 12.0042C1.50452 17.8031 6.20541 22.504 12.0042 22.504C17.8031 22.504 22.504 17.8031 22.504 12.0042C22.504 6.20541 17.8031 1.50452 12.0042 1.50452ZM0.0045166 12.0042C0.0045166 5.37698 5.37698 0.0045166 12.0042 0.0045166C18.6315 0.0045166 24.004 5.37698 24.004 12.0042C24.004 18.6315 18.6315 24.004 12.0042 24.004C5.37698 24.004 0.0045166 18.6315 0.0045166 12.0042ZM12.0042 5.79986C12.4184 5.79986 12.7542 6.13564 12.7542 6.54986V11.2543H17.4587C17.8729 11.2543 18.2087 11.59 18.2087 12.0043C18.2087 12.4185 17.8729 12.7543 17.4587 12.7543H12.7542V17.4587C12.7542 17.8729 12.4184 18.2087 12.0042 18.2087C11.59 18.2087 11.2542 17.8729 11.2542 17.4587V12.7543H6.54987C6.13565 12.7543 5.79987 12.4185 5.79987 12.0043C5.79987 11.59 6.13565 11.2543 6.54987 11.2543H11.2542V6.54986C11.2542 6.13564 11.59 5.79986 12.0042 5.79986Z" fill="white"/>
</g>
<defs>
<clipPath id="clip0_87_275">
<rect width="24" height="24" fill="white"/>
</clipPath>
</defs>
</svg>
