<svg width="12" height="13" viewBox="0 0 12 13" fill="none" xmlns="http://www.w3.org/2000/svg">
<g clip-path="url(#clip0_87_446)">
<path fill-rule="evenodd" clip-rule="evenodd" d="M6.75183 1.53259C6.75183 1.11838 6.41604 0.782593 6.00183 0.782593C5.58762 0.782593 5.25183 1.11838 5.25183 1.53259V6.03466H0.75C0.335786 6.03466 0 6.37044 0 6.78466C0 7.19887 0.335786 7.53466 0.75 7.53466H5.25183V12.0365C5.25183 12.4507 5.58762 12.7865 6.00183 12.7865C6.41604 12.7865 6.75183 12.4507 6.75183 12.0365V7.53466H11.2539C11.6681 7.53466 12.0039 7.19887 12.0039 6.78466C12.0039 6.37044 11.6681 6.03466 11.2539 6.03466H6.75183V1.53259Z" fill="white"/>
</g>
<defs>
<clipPath id="clip0_87_446">
<rect y="0.782593" width="12" height="11.9565" fill="white"/>
</clipPath>
</defs>
</svg>
