<svg width="20" height="20" viewBox="0 0 20 20" fill="none" xmlns="http://www.w3.org/2000/svg">
<g clip-path="url(#clip0_118_177)">
<path fill-rule="evenodd" clip-rule="evenodd" d="M10.7532 0.753174C10.7532 0.33896 10.4174 0.00317383 10.0032 0.00317383C9.58897 0.00317383 9.25318 0.33896 9.25318 0.753174V9.25318H0.753174C0.33896 9.25318 0.00317383 9.58897 0.00317383 10.0032C0.00317383 10.4174 0.33896 10.7532 0.753174 10.7532H9.25318V19.2527C9.25318 19.6669 9.58897 20.0027 10.0032 20.0027C10.4174 20.0027 10.7532 19.6669 10.7532 19.2527V10.7532H19.2527C19.6669 10.7532 20.0027 10.4174 20.0027 10.0032C20.0027 9.58897 19.6669 9.25318 19.2527 9.25318H10.7532V0.753174Z" fill="white"/>
</g>
<defs>
<clipPath id="clip0_118_177">
<rect width="20" height="20" fill="white"/>
</clipPath>
</defs>
</svg>
