<svg width="12" height="12" viewBox="0 0 12 12" fill="none" xmlns="http://www.w3.org/2000/svg">
<g clip-path="url(#clip0_87_446)">
<path fill-rule="evenodd" clip-rule="evenodd" d="M6.75183 0.75C6.75183 0.335786 6.41604 0 6.00183 0C5.58762 0 5.25183 0.335786 5.25183 0.75V5.25206H0.75C0.335786 5.25206 0 5.58785 0 6.00206C0 6.41628 0.335786 6.75206 0.75 6.75206H5.25183V11.2539C5.25183 11.6681 5.58762 12.0039 6.00183 12.0039C6.41604 12.0039 6.75183 11.6681 6.75183 11.2539V6.75206H11.2539C11.6681 6.75206 12.0039 6.41628 12.0039 6.00206C12.0039 5.58785 11.6681 5.25206 11.2539 5.25206H6.75183V0.75Z" fill="white"/>
</g>
<defs>
<clipPath id="clip0_87_446">
<rect width="12" height="12" fill="white"/>
</clipPath>
</defs>
</svg>
