<svg width="32" height="32" viewBox="0 0 32 32" fill="none" xmlns="http://www.w3.org/2000/svg">
<g clip-path="url(#clip0_270_116)">
<path fill-rule="evenodd" clip-rule="evenodd" d="M13.9762 3.64522C13.9762 2.4893 14.9234 1.5 15.9881 1.5C17.0747 1.5 18 2.43607 18 3.58808C18 4.78683 18.7166 5.94072 19.8396 6.42745C21.0036 6.94287 22.3482 6.6204 23.2269 5.79048L23.2327 5.7849L23.2423 5.77555C24.0484 4.9694 25.3639 4.9578 26.1435 5.73747C26.9239 6.51787 26.9123 7.81772 26.1198 8.6244L26.1168 8.62743C25.2781 9.4909 24.9385 10.916 25.4535 12.0794C25.9406 13.2031 27.148 13.9513 28.3344 13.976L28.3501 13.9762C29.506 13.9762 30.4953 14.9234 30.4953 15.9881C30.4953 17.0747 29.5592 18 28.4072 18C27.2084 18 26.0545 18.7166 25.5678 19.8396C25.0524 21.0036 25.3749 22.3482 26.2048 23.2269C26.2078 23.2301 26.2109 23.2333 26.214 23.2365C26.2159 23.2384 26.2178 23.2403 26.2197 23.2423C27.0259 24.0484 27.0375 25.3638 26.2578 26.1435C25.4774 26.9239 24.1776 26.9123 23.3709 26.1198L23.3679 26.1169C22.5099 25.2834 21.1427 24.9355 19.9728 25.4536C18.8321 25.9481 18.1334 27.1718 18.1334 28.35C18.1334 29.506 17.1862 30.4953 16.1215 30.4953C15.0349 30.4953 14.1096 29.5592 14.1096 28.4072L14.1094 28.3919C14.0847 27.1811 13.3297 26.0034 12.135 25.5587C10.9758 25.0563 9.64194 25.3797 8.76839 26.2048C8.7632 26.2097 8.75808 26.2146 8.75303 26.2197C7.94686 27.0259 6.63142 27.0375 5.85177 26.2578C5.07137 25.4774 5.08296 24.1776 5.87549 23.3709L5.87845 23.3679C6.71187 22.5099 7.0597 21.1427 6.54175 19.9729C6.04722 18.8322 4.82348 18.1333 3.64525 18.1333C2.48931 18.1333 1.5 17.1862 1.5 16.1215C1.5 15.0349 2.4361 14.1095 3.58811 14.1095L3.60341 14.1094C4.81417 14.0847 5.99198 13.3296 6.43658 12.1349C6.93903 10.9757 6.6155 9.64192 5.79051 8.7684C5.7856 8.76321 5.78063 8.75809 5.77558 8.75304C4.96943 7.94688 4.95782 6.63142 5.73749 5.85175C6.51788 5.07136 7.81772 5.08296 8.62441 5.87549L8.6244 5.8755L8.62743 5.87845C9.49093 6.71727 10.9161 7.05679 12.0795 6.54173C13.2032 6.05464 13.9513 4.84731 13.9761 3.66084L13.9762 3.64522ZM15.9881 0C14.0085 0 12.4812 1.74784 12.4762 3.63602C12.4602 4.27482 12.03 4.92926 11.4813 5.16621L11.4813 5.16617L11.474 5.1694C10.9243 5.41369 10.143 5.25835 9.67391 4.80379C8.309 3.46463 6.06728 3.40064 4.67683 4.79109C3.28801 6.17991 3.34937 8.43882 4.70626 9.80501C5.16564 10.2965 5.29822 11.0032 5.05513 11.5501C5.04791 11.5664 5.04126 11.5829 5.03521 11.5997C4.82567 12.179 4.22431 12.5937 3.57928 12.6095C1.64937 12.6143 0 14.1634 0 16.1215C0 18.1044 1.75357 19.6333 3.64525 19.6333C4.29434 19.6333 4.93591 20.0378 5.16623 20.5712L5.16619 20.5712L5.16941 20.5784C5.41081 21.1216 5.26375 21.8469 4.80376 22.3214C3.46463 23.6863 3.40067 25.9281 4.79111 27.3185C6.17993 28.7073 8.43879 28.6459 9.80496 27.289C10.2964 26.8297 11.0032 26.6971 11.5502 26.9402C11.5664 26.9474 11.583 26.9541 11.5997 26.9601C12.179 27.1697 12.5937 27.771 12.6096 28.416C12.6143 30.3459 14.1634 31.9953 16.1215 31.9953C18.1044 31.9953 19.6334 30.2417 19.6334 28.35C19.6334 27.7009 20.0378 27.0593 20.5712 26.829L20.5712 26.8291L20.5784 26.8258C21.1215 26.5845 21.8468 26.7315 22.3213 27.1915C23.6863 28.5307 25.928 28.5946 27.3185 27.2041C28.7073 25.8153 28.6459 23.5565 27.289 22.1903C26.8297 21.6988 26.6971 20.9921 26.9402 20.4451L26.9402 20.4451L26.9434 20.4378C27.1813 19.8867 27.7786 19.5 28.4072 19.5C30.3409 19.5 31.9953 17.9491 31.9953 15.9881C31.9953 14.0084 30.2474 12.4811 28.3592 12.4762C27.7204 12.4601 27.066 12.03 26.8291 11.4813L26.8291 11.4813L26.8259 11.474C26.5816 10.9244 26.7369 10.143 27.1915 9.67395C28.5307 8.30904 28.5947 6.06727 27.2042 4.67681C25.8154 3.28801 23.5565 3.34933 22.1903 4.70621C21.6988 5.16561 20.9921 5.29821 20.4451 5.05512L20.4451 5.05508L20.4378 5.05193C19.8867 4.81394 19.5 4.21662 19.5 3.58808C19.5 1.65437 17.9491 0 15.9881 0ZM18.1507 13.5934C19.3675 14.8833 19.3083 16.9154 18.0185 18.1323C16.7288 19.3492 14.6968 19.29 13.48 18.0001C12.2632 16.7102 12.3224 14.6781 13.6122 13.4612C14.902 12.2443 16.9339 12.3035 18.1507 13.5934ZM19.0478 19.2234C20.9402 17.438 21.027 14.4565 19.2418 12.564C17.4565 10.6715 14.4752 10.5847 12.5829 12.3701C10.6905 14.1554 10.6037 17.137 12.389 19.0295C14.1742 20.922 17.1555 21.0088 19.0478 19.2234Z" fill="white"/>
</g>
<defs>
<clipPath id="clip0_270_116">
<rect width="32" height="32" fill="white"/>
</clipPath>
</defs>
</svg>
