<svg width="40" height="32" viewBox="0 0 40 32" fill="none" xmlns="http://www.w3.org/2000/svg">
<g clip-path="url(#clip0_195_68)">
<path fill-rule="evenodd" clip-rule="evenodd" d="M18.2131 9.37856C18.2131 5.73842 20.8943 2.90552 24.0625 2.90552C27.2307 2.90552 29.9119 5.73842 29.9119 9.37856C29.9119 13.0187 27.2307 15.8516 24.0625 15.8516C20.8943 15.8516 18.2131 13.0187 18.2131 9.37856ZM24.0625 1.40552C19.9413 1.40552 16.7131 5.04035 16.7131 9.37856C16.7131 13.7168 19.9413 17.3516 24.0625 17.3516C28.1838 17.3516 31.4119 13.7168 31.4119 9.37856C31.4119 5.04035 28.1838 1.40552 24.0625 1.40552ZM9.98492 32.6535C9.98492 30.7657 10.375 29.3063 11.0488 28.1689C11.7212 27.0339 12.7057 26.1694 13.977 25.5169C16.5554 24.1933 20.2472 23.7728 24.6335 23.7728C29.0198 23.7728 32.7116 24.1933 35.29 25.5169C36.5613 26.1694 37.5458 27.0339 38.2182 28.1689C38.892 29.3063 39.2821 30.7657 39.2821 32.6535C39.2821 33.0677 39.6179 33.4035 40.0321 33.4035C40.4463 33.4035 40.7821 33.0677 40.7821 32.6535C40.7821 30.5567 40.3473 28.8199 39.5087 27.4044C38.6687 25.9865 37.4534 24.9413 35.975 24.1824C33.0539 22.683 29.0464 22.2728 24.6335 22.2728C20.2206 22.2728 16.2131 22.683 13.292 24.1824C11.8136 24.9413 10.5983 25.9865 9.7583 27.4044C8.91973 28.8199 8.48492 30.5567 8.48492 32.6535C8.48492 33.0677 8.82071 33.4035 9.23492 33.4035C9.64914 33.4035 9.98492 33.0677 9.98492 32.6535ZM7.53937 11.4143C7.81018 8.07308 10.547 5.50165 13.7554 5.84148C14.1673 5.88511 14.4658 6.25439 14.4222 6.6663C14.3786 7.07821 14.0093 7.37676 13.5974 7.33313C11.3503 7.09512 9.24761 8.90566 9.03447 11.5355C8.81971 14.1851 10.5735 16.4086 12.825 16.6272L12.8325 16.6279L12.8325 16.628C13.7594 16.7274 14.6466 16.4721 15.4276 15.9718C15.7764 15.7483 16.2403 15.8499 16.4637 16.1987C16.6872 16.5474 16.5856 17.0113 16.2368 17.2348C15.2149 17.8895 13.9917 18.26 12.6763 18.1198C9.47429 17.8067 7.27027 14.7344 7.53937 11.4143ZM9.23292 20.7169C5.92073 20.7169 3.70118 21.5056 2.37236 23.295C1.0904 25.0214 0.78363 27.5074 0.78363 30.4957C0.78363 30.9099 1.11942 31.2457 1.53363 31.2457C1.94784 31.2457 2.28363 30.9099 2.28363 30.4957C2.28363 27.5129 2.6148 25.4846 3.57664 24.1893C4.49161 22.9571 6.1217 22.2169 9.23292 22.2169C9.64713 22.2169 9.98292 21.8811 9.98292 21.4669C9.98292 21.0527 9.64713 20.7169 9.23292 20.7169Z" fill="#00D0DD"/>
</g>
<defs>
<clipPath id="clip0_195_68">
<rect width="40" height="32" fill="white"/>
</clipPath>
</defs>
</svg>
